<svg width="512" height="512" viewBox="0 0 512 512" fill="none" xmlns="http://www.w3.org/2000/svg">
<rect width="512" height="512" fill="#0E0E0E"/>
<path fill-rule="evenodd" clip-rule="evenodd" d="M232 147.85V370.15C232 382.975 223.6 387.25 211 387.25C198.4 387.25 190 382.975 190 370.15V190H148V370.15C148 412.9 173.2 430 211 430C248.8 430 274 412.9 274 370.15V147.85C274 139.3 282.4 130.75 295 130.75C307.6 130.75 316 139.3 316 147.85V259C316 271.825 310.6 276.25 298 276.25V319C335.8 319 358 297.475 358 259V147.85C358 100.825 332.8 88 295 88C257.2 88 232 100.825 232 147.85Z" fill="#21E785"/>
</svg>
